<svg height="512" viewBox="0 0 58 58" width="512" xmlns="http://www.w3.org/2000/svg"><g id="Page-1" fill="none" fill-rule="evenodd"><g id="030---Update-Schedule" fill-rule="nonzero"><path id="Shape" d="m52 16v10.59l-26.24 24.41h-21.76c-2.209139 0-4-1.790861-4-4v-31z" fill="#ecf0f1"/><rect id="Rectangle-path" fill="#95a5a5" height="5" rx="1" width="6" x="26" y="20"/><rect id="Rectangle-path" fill="#95a5a5" height="5" rx="1" width="6" x="15" y="30"/><rect id="Rectangle-path" fill="#95a5a5" height="5" rx="1" width="6" x="15" y="40"/><path id="Shape" d="m52 7v9h-52v-9c0-2.209139 1.790861-4 4-4h44c2.209139 0 4 1.790861 4 4z" fill="#e64c3c"/><path id="Shape" d="m41 3c1.7799916.69615377 2.9644585 2.39704811 3 4.308-.1669773 2.63882398-2.3558984 4.6936142-5 4.6936142s-4.8330227-2.05479022-5-4.6936142c.0355415-1.91095189 1.2200084-3.61184623 3-4.308z" fill="#c03a2b"/><path id="Shape" d="m15 3c1.7799916.69615377 2.9644585 2.39704811 3 4.308-.0886126 2.67476119-2.3250095 4.773396-5 4.692-2.6749905.081396-4.91138737-2.01723881-5-4.692.03554154-1.91095189 1.22000835-3.61184623 3-4.308z" fill="#c03a2b"/><circle id="Oval" cx="40" cy="40" fill="#f0c419" r="18"/><g fill="#95a5a5"><rect id="Rectangle-path" height="5" rx="1" width="6" x="4" y="20"/><rect id="Rectangle-path" height="5" rx="1" width="6" x="15" y="20"/><rect id="Rectangle-path" height="5" rx="1" width="6" x="4" y="30"/><rect id="Rectangle-path" height="5" rx="1" width="6" x="4" y="40"/></g><path id="Shape" d="m30.707 39.707c.3789722-.3923789.3735524-1.0160848-.0121814-1.4018186s-1.0094397-.3911536-1.4018186-.0121814l-.173.173c.6784259-4.8357666 4.4657329-8.6442262 9.297646-9.3495745 4.8319131-.7053482 9.5498741 1.8615378 11.582354 6.3015745.2402248.4849495.8226559.6907927 1.3142538.4644843.491598-.2263083.7139542-.8026372.5017462-1.3004843-2.4430596-5.3253697-8.1465391-8.3584363-13.9277354-7.4066625-5.7811962.9517738-10.2113314 5.6531643-10.8182646 11.4806625l-.363-.363c-.3923789-.3789722-1.0160848-.3735524-1.4018186.0121814s-.3911536 1.0094397-.0121814 1.4018186l2 2c.3904999.3903819 1.0235001.3903819 1.414 0z" fill="#955ba5"/><path id="Shape" d="m54.707 40.293-2-2c-.3904999-.3903819-1.0235001-.3903819-1.414 0l-2 2c-.3789722.3923789-.3735524 1.0160848.0121814 1.4018186s1.0094397.3911536 1.4018186.0121814l.173-.173c-.6784259 4.8357666-4.4657329 8.6442262-9.297646 9.3495745-4.8319131.7053482-9.5498741-1.8615378-11.582354-6.3015745-.2402248-.4849495-.8226559-.6907927-1.3142538-.4644843-.491598.2263083-.7139542.8026372-.5017462 1.3004843 2.4430596 5.3253697 8.1465391 8.3584363 13.9277354 7.4066625 5.7811962-.9517738 10.2113314-5.6531643 10.8182646-11.4806625l.363.363c.3923789.3789722 1.0160848.3735524 1.4018186-.0121814s.3911536-1.0094397.0121814-1.4018186z" fill="#955ba5"/><path id="Shape" d="m40 46c.5522847 0 1-.4477153 1-1v-6.586l.293.293c.3923789.3789722 1.0160848.3735524 1.4018186-.0121814s.3911536-1.0094397.0121814-1.4018186l-2-2c-.3904999-.3903819-1.0235001-.3903819-1.414 0l-2 2c-.3789722.3923789-.3735524 1.0160848.0121814 1.4018186s1.0094397.3911536 1.4018186.0121814l.293-.293v6.586c0 .5522847.4477153 1 1 1z" fill="#3d324c"/><rect id="Rectangle-path" fill="#95a5a5" height="8" rx="2" width="4" x="37"/><rect id="Rectangle-path" fill="#95a5a5" height="8" rx="2" width="4" x="11"/></g></g></svg>