<svg id="Layer_1" enable-background="new 0 0 510 510" height="512" viewBox="0 0 510 510" width="512" xmlns="http://www.w3.org/2000/svg"><g><path d="m200.73 89.711 28.804-57.609 111.345-31.813 8.242 28.846-98.655 28.186-16.196 32.39-16.162 10z" fill="#c7deee"/><g><path d="m31.302 179.711 30 330h88.698l10-170-10-160-59.35-10z" fill="#a5c7f8"/><path d="m263.826 249.793 5.118-70.082-59.471-10-59.473 10v330h60z" fill="#8291f7"/></g><g><path d="m0 89.711v90h150l10-45-10-45z" fill="#4c68a2"/><path d="m150 89.711h150v90h-150z" fill="#274677"/></g><path d="m210 389.711v45l64.239 10 70.761-10 10-22.5-10-22.5-69.408-10z" fill="#c08478"/><path d="m480 389.711-67.5-10-67.5 10v45l67.5 10 67.5-10z" fill="#a35d4e"/><path d="m180 434.711v45c0 16.543 13.458 30 30 30h135l10-37.5-10-37.5z" fill="#efd550"/><path d="m315 239.711c-74.439 0-135 60.561-135 135v15h165l10-68.816-10-81.184z" fill="#efd550"/><g fill="#e7ba3c"><path d="m509.969 479.711v-45h-164.969v75h134.969c16.542 0 30-13.457 30-30z"/><path d="m510 374.711c0-74.439-60.56-135-135-135h-30v150h165z"/></g></g></svg>