<?xml version="1.0"?>
<svg xmlns="http://www.w3.org/2000/svg" xmlns:xlink="http://www.w3.org/1999/xlink" xmlns:svgjs="http://svgjs.com/svgjs" version="1.1" width="512" height="512" x="0" y="0" viewBox="0 0 512 512" style="enable-background:new 0 0 512 512" xml:space="preserve" class=""><g transform="matrix(1,0,0,1,0,0)"><path xmlns="http://www.w3.org/2000/svg" d="M488,216a88.0013,88.0013,0,0,1-88,88H112A88.01185,88.01185,0,0,1,94.53,129.73c.63989-.13,1.29-.25,1.92993-.37A47.99465,47.99465,0,0,1,144,88c.68994,0,1.37988.01,2.07007.05a47.63894,47.63894,0,0,1,16.32007,3.6,136.045,136.045,0,0,1,250.02978,37.23A87.95471,87.95471,0,0,1,488,216Z" style="" fill="#8acce7" data-original="#8acce7" class=""/><path xmlns="http://www.w3.org/2000/svg" d="M166.75,242.94a55.89532,55.89532,0,1,1-20.48,29.24" style="fill:none;stroke:#000;stroke-linejoin:round;stroke-width:16px" fill=""/><polyline xmlns="http://www.w3.org/2000/svg" points="176 288 192 304 224 272" style="fill:none;stroke:#000;stroke-linejoin:round;stroke-width:16px" fill=""/><polygon xmlns="http://www.w3.org/2000/svg" points="152 272 152 424 120 424 104 440 48 384 64 368 64 272 152 272" style="" fill="#f4ceaf" data-original="#f4ceaf" class=""/><rect xmlns="http://www.w3.org/2000/svg" x="120" y="160" width="160" height="264" rx="32" ry="32" style="" fill="#a2c32a" data-original="#a2c32a" class=""/><circle xmlns="http://www.w3.org/2000/svg" cx="200" cy="288" r="56" style="" fill="#eedc9a" data-original="#eedc9a" class=""/><path xmlns="http://www.w3.org/2000/svg" d="M96,352h0a24,24,0,0,0,24-24V280h.00005a48,48,0,0,0,48-48v0H104L64,272v80Z" style="" fill="#f4ceaf" data-original="#f4ceaf" class=""/><polygon xmlns="http://www.w3.org/2000/svg" points="16 400 40 376 128 464 96 496 16 496 16 400" style="" fill="#2f4054" data-original="#2f4054" class=""/><path xmlns="http://www.w3.org/2000/svg" d="M472.249,152.78418a95.988,95.988,0,0,0-53.38134-30.90845C402.11328,60.91675,346.208,16,280,16A144.01978,144.01978,0,0,0,158.91406,82.0249a55.99011,55.99011,0,0,0-69.29687,40.616A96.01568,96.01568,0,0,0,33.459,271.21484l13.082-9.21093A80.01022,80.01022,0,0,1,112,136c2.42969,0,4.87988.10938,7.28223.32617l1.43554-15.93555C117.83984,120.13184,114.90625,120,112,120q-2.37012,0-4.7124.1167A39.98523,39.98523,0,0,1,150.707,96.56836c-2.01,4.10059-3.85351,8.2981-5.47949,12.60742l14.9707,5.64844A128.023,128.023,0,0,1,408,160h16a144.54885,144.54885,0,0,0-1.50488-20.77954,80.00925,80.00925,0,0,1-14.30664,156.36645l1.61718,15.918A96.00645,96.00645,0,0,0,472.249,152.78418Z" fill="#000000" data-original="#000000" style="" class=""/><rect xmlns="http://www.w3.org/2000/svg" x="304" y="296" width="56" height="16" fill="#000000" data-original="#000000" style="" class=""/><path xmlns="http://www.w3.org/2000/svg" d="M192,312a7.97772,7.97772,0,0,0,5.65723-2.34277l32-32-11.31446-11.31446L192,292.68652l-10.34277-10.34375-11.31446,11.31446,16,16A7.97772,7.97772,0,0,0,192,312Z" fill="#000000" data-original="#000000" style="" class=""/><path xmlns="http://www.w3.org/2000/svg" d="M248,152H152a40.04584,40.04584,0,0,0-40,40v32h-8a8.00235,8.00235,0,0,0-5.65723,2.34277l-40,40A8.00235,8.00235,0,0,0,56,272v92.68652l-7.99976,7.99927-2.343-2.343a8.003,8.003,0,0,0-11.31446,0l-16,16,11.31446,11.31446L40,387.31348,116.68652,464,98.34277,482.34277l11.31446,11.31446,24-24a8.00122,8.00122,0,0,0,0-11.31446l-18.343-18.343L123.31348,432H248a40.04584,40.04584,0,0,0,40-40V192A40.04584,40.04584,0,0,0,248,152ZM114.34277,418.34277,104,428.68555,59.31445,384l10.34278-10.34277A8.00235,8.00235,0,0,0,72,368V275.31348L107.31348,240h51.88281A40.07012,40.07012,0,0,1,120,272a8.00039,8.00039,0,0,0-8,8v48a16.01833,16.01833,0,0,1-16,16v16a31.792,31.792,0,0,0,16-4.30518V392a39.79015,39.79015,0,0,0,8.022,24H120A8.00235,8.00235,0,0,0,114.34277,418.34277Zm59.36182-170.49121A47.99471,47.99471,0,1,1,152,288a48.10926,48.10926,0,0,1,1.27051-10.98462A56.19094,56.19094,0,0,0,173.70459,247.85156ZM272,392a24.0275,24.0275,0,0,1-24,24H152a24.0275,24.0275,0,0,1-24-24V287.43066a55.54886,55.54886,0,0,0,8.04346-1.78295Q136.001,286.82178,136,288a63.93365,63.93365,0,1,0,39.37769-59.09619A8.00208,8.00208,0,0,0,168,224H128V192a24.0275,24.0275,0,0,1,24-24h96a24.0275,24.0275,0,0,1,24,24Z" fill="#000000" data-original="#000000" style="" class=""/><rect xmlns="http://www.w3.org/2000/svg" x="184" y="176" width="32" height="16" fill="#000000" data-original="#000000" style="" class=""/><path xmlns="http://www.w3.org/2000/svg" d="M200,360a24,24,0,1,0,24,24A24.0275,24.0275,0,0,0,200,360Zm0,32a8,8,0,1,1,8-8A8.00917,8.00917,0,0,1,200,392Z" fill="#000000" data-original="#000000" style="" class=""/><path xmlns="http://www.w3.org/2000/svg" d="M376,360H323.314l10.34327-10.34277-11.31446-11.31446-24,24a8.00122,8.00122,0,0,0,0,11.31446l24,24,11.31446-11.31446L323.314,376H384a8.00039,8.00039,0,0,0,8-8V264H376Z" fill="#000000" data-original="#000000" style="" class=""/><rect xmlns="http://www.w3.org/2000/svg" x="376" y="232" width="16" height="16" fill="#000000" data-original="#000000" style="" class=""/><rect xmlns="http://www.w3.org/2000/svg" x="200" y="128" width="16" height="16" fill="#000000" data-original="#000000" style="" class=""/><path xmlns="http://www.w3.org/2000/svg" d="M293.65723,66.34277l-24-24L258.34277,53.65723,268.686,64H208a8.00039,8.00039,0,0,0-8,8v40h16V80h52.686L258.34277,90.34277l11.31446,11.31446,24-24A8.00122,8.00122,0,0,0,293.65723,66.34277Z" fill="#000000" data-original="#000000" style="" class=""/></g></svg>
