<?xml version="1.0"?>
<svg xmlns="http://www.w3.org/2000/svg" xmlns:xlink="http://www.w3.org/1999/xlink" xmlns:svgjs="http://svgjs.com/svgjs" version="1.1" width="512" height="512" x="0" y="0" viewBox="0 0 460.482 460.482" style="enable-background:new 0 0 512 512" xml:space="preserve" class=""><circle r="230.241" cx="230.241" cy="230.241" fill="#bac8d3" shape="circle"/><g transform="matrix(0.7,0,0,0.7,69.0722396850586,69.07230033874512)"><g xmlns="http://www.w3.org/2000/svg"><g><path d="m398.468 250.932v-41.356l-38.513-4.291c-3.282-17.524-10.07-34.203-19.954-49.04l24.045-30.331-29.184-29.284-30.63 23.846c-14.832-9.893-31.513-16.681-49.04-19.954l-4.439-38.463h-41.157l-4.291 38.463c-17.471 3.303-34.097 10.089-48.89 19.954l-30.331-24.045-29.184 29.284 23.996 30.331c-10.074 14.853-17 31.608-20.354 49.239l-38.463 4.489v41.356l38.463 4.041c3.366 17.486 10.258 34.103 20.254 48.84l-23.996 30.331 29.184 29.284 30.281-23.646c14.836 9.885 31.516 16.672 49.04 19.954l4.439 38.463h41.306l4.141-38.463c17.525-3.275 34.206-10.062 49.04-19.954l30.381 24.045 29.184-29.284-23.796-30.53c9.893-14.832 16.682-31.513 19.954-49.04zm-168.218 40.657c-33.889 0-61.36-27.473-61.36-61.362s27.473-61.36 61.362-61.36 61.36 27.473 61.36 61.36c-.002 33.891-27.473 61.362-61.362 61.362z" fill="#0b2558" data-original="#e1e6e9" style="" class=""/><path d="m230.25 143.076c-48.133 0-87.153 39.02-87.153 87.153s39.02 87.153 87.153 87.153 87.153-39.02 87.153-87.153-39.02-87.153-87.153-87.153zm0 148.513c-33.889 0-61.36-27.473-61.36-61.362s27.473-61.36 61.362-61.36 61.36 27.473 61.36 61.36c-.002 33.891-27.473 61.362-61.362 61.362z" fill="#2ba3e2" data-original="#d5d6db" style="" class=""/><path d="m230.25 0c-127.096.138-230.091 103.134-230.229 230.229h18.358c-.031-117.04 94.825-211.946 211.865-211.977s211.945 94.823 211.977 211.864c.031 117.041-94.823 211.945-211.864 211.977-43.29.012-85.545-13.236-121.082-37.958l-2.295-1.746 38.911-2.793-1.297-18.308-71.039 4.989 17.76 69.243 17.76-4.539-7.683-29.933c105.386 71.144 248.492 43.384 319.635-62.001s43.384-248.492-62.001-319.635c-38.038-25.68-82.882-39.403-128.776-39.412z" fill="#ffffff" data-original="#2f4859" style="" class=""/></g></g></g></svg>
